<svg width="14" height="8" viewBox="0 0 14 8" fill="none" xmlns="http://www.w3.org/2000/svg">
<path d="M0.29474 7.36672C0.482267 7.55419 0.736575 7.6595 1.00174 7.6595C1.2669 7.6595 1.52121 7.55419 1.70874 7.36672L6.65874 2.41672L11.6087 7.36672C11.7973 7.54887 12.0499 7.64967 12.3121 7.64739C12.5743 7.64511 12.8252 7.53994 13.0106 7.35453C13.196 7.16913 13.3011 6.91831 13.3034 6.65612C13.3057 6.39392 13.2049 6.14132 13.0227 5.95272L7.36574 0.295716C7.17821 0.108245 6.9239 0.00292969 6.65874 0.00292969C6.39358 0.00292969 6.13927 0.108245 5.95174 0.295716L0.29474 5.95272C0.107269 6.14024 0.00195313 6.39455 0.00195313 6.65972C0.00195313 6.92488 0.107269 7.17919 0.29474 7.36672Z" fill="black"/>
</svg>
