<svg width="14" height="8" viewBox="0 0 14 8" fill="none" xmlns="http://www.w3.org/2000/svg">
<path d="M13.0676 0.395979C12.88 0.208508 12.6257 0.103193 12.3606 0.103193C12.0954 0.103193 11.8411 0.208508 11.6536 0.395979L6.70357 5.34598L1.75356 0.395979C1.56496 0.213821 1.31236 0.113027 1.05016 0.115305C0.787966 0.117584 0.537154 0.222753 0.351746 0.408161C0.166337 0.593569 0.0611697 0.844382 0.0588913 1.10658C0.0566129 1.36878 0.157407 1.62138 0.339565 1.80998L5.99657 7.46698C6.18409 7.65445 6.4384 7.75977 6.70357 7.75977C6.96873 7.75977 7.22304 7.65445 7.41056 7.46698L13.0676 1.80998C13.255 1.62245 13.3604 1.36814 13.3604 1.10298C13.3604 0.837815 13.255 0.583507 13.0676 0.395979Z" fill="black"/>
</svg>
