<svg width="20" height="20" viewBox="0 0 20 20" fill="none" xmlns="http://www.w3.org/2000/svg">
<path d="M4.28571 0C3.14907 0 2.05898 0.451529 1.25526 1.25526C0.451529 2.05898 0 3.14907 0 4.28571V15.7143C0 16.8509 0.451529 17.941 1.25526 18.7447C2.05898 19.5485 3.14907 20 4.28571 20H15.7143C16.8509 20 17.941 19.5485 18.7447 18.7447C19.5485 17.941 20 16.8509 20 15.7143V4.28571C20 3.14907 19.5485 2.05898 18.7447 1.25526C17.941 0.451529 16.8509 0 15.7143 0H4.28571ZM15.5057 6.93429L8.36286 14.0771C8.29651 14.1437 8.21768 14.1964 8.13091 14.2324C8.04413 14.2685 7.9511 14.287 7.85714 14.287C7.76319 14.287 7.67016 14.2685 7.58338 14.2324C7.4966 14.1964 7.41778 14.1437 7.35143 14.0771L4.49429 11.22C4.36016 11.0859 4.28481 10.904 4.28481 10.7143C4.28481 10.5246 4.36016 10.3427 4.49429 10.2086C4.62841 10.0744 4.81032 9.9991 5 9.9991C5.18968 9.9991 5.37159 10.0744 5.50571 10.2086L7.85714 12.5614L14.4943 5.92286C14.5607 5.85645 14.6395 5.80377 14.7263 5.76782C14.8131 5.73188 14.9061 5.71338 15 5.71338C15.0939 5.71338 15.1869 5.73188 15.2737 5.76782C15.3605 5.80377 15.4393 5.85645 15.5057 5.92286C15.5721 5.98927 15.6248 6.06811 15.6607 6.15488C15.6967 6.24165 15.7152 6.33465 15.7152 6.42857C15.7152 6.52249 15.6967 6.61549 15.6607 6.70226C15.6248 6.78903 15.5721 6.86787 15.5057 6.93429Z" fill="black"/>
</svg>
