<svg width="25" height="26" viewBox="0 0 25 26" fill="none" xmlns="http://www.w3.org/2000/svg">
<path d="M4.17676 20.0185V10.9945C4.17676 10.6769 4.24795 10.3761 4.39033 10.092C4.53271 9.80795 4.7289 9.57399 4.9789 9.39017L10.995 4.87812C11.3459 4.61074 11.747 4.47705 12.1982 4.47705C12.6494 4.47705 13.0505 4.61074 13.4014 4.87812L19.4175 9.39017C19.6681 9.57399 19.8646 9.80795 20.007 10.092C20.1494 10.3761 20.2203 10.6769 20.2196 10.9945V20.0185C20.2196 20.57 20.0231 21.0423 19.63 21.4353C19.237 21.8284 18.765 22.0246 18.2142 22.0239H15.2062C14.9221 22.0239 14.6841 21.9276 14.4923 21.7351C14.3005 21.5426 14.2042 21.3046 14.2035 21.0212V16.0078C14.2035 15.7237 14.1073 15.4858 13.9148 15.2939C13.7222 15.1021 13.4843 15.0058 13.2009 15.0052H11.1955C10.9114 15.0052 10.6734 15.1014 10.4816 15.2939C10.2897 15.4864 10.1935 15.7244 10.1928 16.0078V21.0212C10.1928 21.3053 10.0966 21.5436 9.90405 21.7361C9.71154 21.9286 9.47357 22.0246 9.19014 22.0239H6.18211C5.63064 22.0239 5.15871 21.8277 4.76633 21.4353C4.37395 21.043 4.17743 20.5707 4.17676 20.0185Z" fill="black"/>
</svg>
