<svg width="25" height="26" viewBox="0 0 25 26" fill="none" xmlns="http://www.w3.org/2000/svg">
<g clip-path="url(#clip0_12_3490)">
<path d="M6.18211 20.0185H9.19014V15.0052C9.19014 14.7211 9.2864 14.4831 9.47892 14.2913C9.67143 14.0994 9.9094 14.0032 10.1928 14.0025H14.2035C14.4876 14.0025 14.7259 14.0987 14.9184 14.2913C15.111 14.4838 15.2069 14.7217 15.2062 15.0052V20.0185H18.2142V10.9945L12.1982 6.48241L6.18211 10.9945V20.0185ZM4.17676 20.0185V10.9945C4.17676 10.6769 4.24795 10.3761 4.39033 10.092C4.53271 9.80795 4.7289 9.57399 4.9789 9.39017L10.995 4.87812C11.3459 4.61074 11.747 4.47705 12.1982 4.47705C12.6494 4.47705 13.0505 4.61074 13.4014 4.87812L19.4175 9.39017C19.6681 9.57399 19.8646 9.80795 20.007 10.092C20.1494 10.3761 20.2203 10.6769 20.2196 10.9945V20.0185C20.2196 20.57 20.0231 21.0423 19.63 21.4353C19.237 21.8284 18.765 22.0246 18.2142 22.0239H14.2035C13.9194 22.0239 13.6815 21.9276 13.4896 21.7351C13.2978 21.5426 13.2015 21.3046 13.2009 21.0212V16.0078H11.1955V21.0212C11.1955 21.3053 11.0992 21.5436 10.9067 21.7361C10.7142 21.9286 10.4762 22.0246 10.1928 22.0239H6.18211C5.63064 22.0239 5.15871 21.8277 4.76633 21.4353C4.37395 21.043 4.17743 20.5707 4.17676 20.0185Z" fill="black"/>
</g>
<defs>
<clipPath id="clip0_12_3490">
<rect width="24.0643" height="24.0643" fill="white" transform="translate(0.166016 0.967773)"/>
</clipPath>
</defs>
</svg>
