<svg width="25" height="26" viewBox="0 0 25 26" fill="none" xmlns="http://www.w3.org/2000/svg">
<path d="M12.8014 10.9943C13.2623 10.9943 13.7186 10.9036 14.1444 10.7272C14.5702 10.5508 14.9571 10.2923 15.2829 9.96646C15.6088 9.64058 15.8673 9.25371 16.0437 8.82794C16.22 8.40216 16.3108 7.94581 16.3108 7.48496C16.3108 7.0241 16.22 6.56776 16.0437 6.14198C15.8673 5.7162 15.6088 5.32933 15.2829 5.00346C14.9571 4.67758 14.5702 4.41908 14.1444 4.24272C13.7186 4.06636 13.2623 3.97559 12.8014 3.97559C11.8707 3.97559 10.9781 4.34532 10.3199 5.00346C9.66181 5.66159 9.29207 6.55421 9.29207 7.48496C9.29207 8.4157 9.66181 9.30832 10.3199 9.96646C10.9781 10.6246 11.8707 10.9943 12.8014 10.9943ZM3.77734 21.4222V22.0238H21.8255V21.4222C21.8255 19.1762 21.8255 18.0532 21.3884 17.1949C21.0039 16.4403 20.3903 15.8267 19.6357 15.4422C18.7774 15.005 17.6544 15.005 15.4084 15.005H10.1945C7.94848 15.005 6.82548 15.005 5.96719 15.4422C5.21256 15.8267 4.59903 16.4403 4.21451 17.1949C3.77734 18.0532 3.77734 19.1762 3.77734 21.4222Z" stroke="black" stroke-width="2" stroke-linecap="round" stroke-linejoin="round"/>
</svg>
