<svg width="17" height="18" viewBox="0 0 17 18" fill="none" xmlns="http://www.w3.org/2000/svg">
<path d="M8.39631 2.48242C4.80271 2.48242 1.87891 5.40623 1.87891 8.99982C1.87891 12.5934 4.80271 15.5172 8.39631 15.5172C11.9899 15.5172 14.9137 12.5934 14.9137 8.99982C14.9137 5.40623 11.9899 2.48242 8.39631 2.48242ZM8.39631 3.4851C11.448 3.4851 13.911 5.94818 13.911 8.99982C13.911 12.0515 11.448 14.5145 8.39631 14.5145C5.34466 14.5145 2.88158 12.0515 2.88158 8.99982C2.88158 5.94818 5.34466 3.4851 8.39631 3.4851ZM7.89497 5.99179V8.49849H5.38828V9.50116H7.89497V12.0079H8.89765V9.50116H11.4043V8.49849H8.89765V5.99179H7.89497Z" fill="black"/>
</svg>
