<svg width="24" height="24" viewBox="0 0 24 24" fill="none" xmlns="http://www.w3.org/2000/svg">
<path fill-rule="evenodd" clip-rule="evenodd" d="M17.2501 10.5001C17.2501 11.3865 17.0755 12.2643 16.7363 13.0832C16.3971 13.9021 15.8999 14.6463 15.2731 15.2731C14.6463 15.8999 13.9021 16.3971 13.0832 16.7363C12.2643 17.0755 11.3865 17.2501 10.5001 17.2501C9.61367 17.2501 8.73592 17.0755 7.91698 16.7363C7.09803 16.3971 6.35391 15.8999 5.72712 15.2731C5.10032 14.6463 4.60312 13.9021 4.2639 13.0832C3.92468 12.2643 3.75009 11.3865 3.75009 10.5001C3.75009 8.70988 4.46125 6.99299 5.72712 5.72712C6.99299 4.46125 8.70988 3.75009 10.5001 3.75009C12.2903 3.75009 14.0072 4.46125 15.2731 5.72712C16.5389 6.99299 17.2501 8.70988 17.2501 10.5001ZM16.0201 17.6101C14.2117 19.0141 11.9361 19.676 9.65679 19.4613C7.37744 19.2466 5.26561 18.1712 3.75121 16.4542C2.23682 14.7372 1.43372 12.5075 1.50539 10.2192C1.57707 7.93089 2.51814 5.7559 4.13702 4.13702C5.7559 2.51814 7.93089 1.57707 10.2192 1.50539C12.5075 1.43372 14.7372 2.23682 16.4542 3.75121C18.1712 5.26561 19.2466 7.37744 19.4613 9.65679C19.676 11.9361 19.0141 14.2117 17.6101 16.0201L21.7951 20.2051C21.9056 20.3081 21.9943 20.4323 22.0558 20.5703C22.1172 20.7083 22.1503 20.8573 22.153 21.0083C22.1556 21.1594 22.1279 21.3094 22.0713 21.4495C22.0147 21.5896 21.9305 21.7168 21.8236 21.8236C21.7168 21.9305 21.5896 22.0147 21.4495 22.0713C21.3094 22.1279 21.1594 22.1556 21.0083 22.153C20.8573 22.1503 20.7083 22.1172 20.5703 22.0558C20.4323 21.9943 20.3081 21.9056 20.2051 21.7951L16.0201 17.6101Z" fill="black"/>
</svg>
