<svg width="337" height="54" viewBox="0 0 337 54" fill="none" xmlns="http://www.w3.org/2000/svg">
<rect width="337" height="54" rx="4" fill="#03C75A"/>
<path d="M105.373 27.9527L98.7919 18.5327H93.3369V36.1327H99.0519V26.7127L105.632 36.1327H111.087V18.5327H105.373V27.9527Z" fill="white"/>
<path d="M134.688 30.659V18.585H136.495V29.078H137.172C138.207 29.0848 139.241 29.0056 140.263 28.841C141.199 28.6843 141.969 28.5373 142.573 28.4V29.91C142.243 30.0066 141.86 30.1 141.423 30.19C140.984 30.281 140.516 30.36 140.016 30.43C139.516 30.5 139.006 30.555 138.487 30.596C137.968 30.637 137.46 30.659 136.967 30.659H134.688ZM143.825 17.394H145.571V35.463H143.825V24.704H139.76V23.164H143.825V17.394ZM149.759 35.933H147.993V17.189H149.759V35.933Z" fill="white"/>
<path d="M161.75 24.96C161.765 25.943 161.64 26.9231 161.379 27.871C161.173 28.6303 160.828 29.3447 160.361 29.978C159.957 30.5168 159.431 30.9535 158.828 31.253C158.239 31.5413 157.591 31.6891 156.935 31.685C156.282 31.6901 155.637 31.5421 155.052 31.253C154.451 30.9502 153.926 30.5142 153.519 29.978C153.045 29.3463 152.692 28.6318 152.48 27.871C152.212 26.9243 152.084 25.9437 152.099 24.96C152.083 23.9798 152.212 23.0027 152.48 22.06C152.694 21.3018 153.046 20.5898 153.519 19.96C153.926 19.424 154.451 18.988 155.052 18.685C155.638 18.3969 156.282 18.2494 156.935 18.254C157.591 18.2504 158.238 18.3979 158.828 18.685C159.431 18.9848 159.956 19.4214 160.361 19.96C160.827 20.5913 161.172 21.3033 161.379 22.06C161.64 23.004 161.765 23.9805 161.75 24.96ZM159.943 24.96C159.951 24.2582 159.883 23.5576 159.743 22.87C159.628 22.3044 159.431 21.7588 159.157 21.251C158.932 20.8311 158.608 20.4727 158.213 20.207C157.828 19.9659 157.384 19.838 156.93 19.838C156.476 19.838 156.031 19.9659 155.647 20.207C155.251 20.4724 154.927 20.8309 154.702 21.251C154.428 21.7587 154.23 22.3043 154.116 22.87C153.843 24.2502 153.843 25.6707 154.116 27.051C154.23 27.6168 154.427 28.1624 154.702 28.67C154.929 29.0916 155.253 29.4532 155.647 29.725C156.029 29.9724 156.475 30.104 156.93 30.104C157.385 30.104 157.831 29.9724 158.213 29.725C158.607 29.4529 158.93 29.0913 159.157 28.67C159.431 28.1622 159.629 27.6166 159.743 27.051C159.884 26.363 159.951 25.6621 159.943 24.96ZM165.282 17.189H167.048V35.933H165.282V17.189Z" fill="white"/>
<path d="M178.484 23.78H182.884V17.189H184.65V35.933H182.884V25.32H178.484V30.82H170.107L170.128 18.602H171.935V23.243H176.735V18.605H178.48L178.484 23.78ZM176.76 24.745H171.914V29.324H176.76V24.745Z" fill="white"/>
<path d="M194.327 28.4409V22.7739H204.286V20.0629H194.307V18.5239H206.052V24.2329H196.093V26.9439H206.668V28.4439H201.1V31.7909H208.9V33.2909H191.452V31.7909H199.252V28.4409H194.327Z" fill="white"/>
<path d="M221.944 20.4541H211.719V18.8721H223.751C223.723 19.8867 223.673 20.9461 223.599 22.0501C223.525 23.1541 223.43 24.2611 223.315 25.3711C223.199 26.4824 223.066 27.5657 222.915 28.6211C222.763 29.6764 222.614 30.6567 222.468 31.5621H226.479V33.0621H209.05V31.5621H220.671C221.013 29.8781 221.3 28.0744 221.534 26.1511C221.767 24.2277 221.904 22.3287 221.944 20.4541Z" fill="white"/>
<path d="M227.3 22.774C227.294 22.1192 227.419 21.4698 227.668 20.864C227.903 20.2929 228.252 19.7757 228.693 19.344C229.136 18.9142 229.658 18.5746 230.23 18.344C230.842 18.0996 231.497 17.9773 232.156 17.984C232.822 17.9789 233.483 18.1011 234.103 18.344C234.683 18.5709 235.212 18.9108 235.66 19.344C236.101 19.7757 236.45 20.2929 236.684 20.864C236.933 21.4696 237.059 22.119 237.053 22.774C237.059 23.4153 236.933 24.051 236.684 24.642C236.448 25.203 236.099 25.7097 235.66 26.131C235.21 26.5575 234.681 26.8924 234.103 27.117C233.483 27.3595 232.822 27.4814 232.156 27.476C231.497 27.4829 230.842 27.361 230.23 27.117C229.662 26.8886 229.143 26.5547 228.7 26.133C228.26 25.7118 227.911 25.205 227.675 24.644C227.424 24.0527 227.296 23.4163 227.3 22.774ZM229.189 22.763C229.185 23.1921 229.258 23.6184 229.404 24.022C229.537 24.393 229.747 24.7315 230.021 25.015C230.292 25.2915 230.617 25.5106 230.975 25.659C231.767 25.9737 232.648 25.9737 233.44 25.659C233.802 25.5106 234.13 25.2884 234.402 25.0066C234.674 24.7248 234.885 24.3895 235.02 24.022C235.173 23.6201 235.25 23.1931 235.246 22.763C235.251 22.3161 235.175 21.8721 235.02 21.453C234.881 21.076 234.671 20.7296 234.4 20.433C234.132 20.1465 233.807 19.9198 233.446 19.768C232.654 19.4533 231.773 19.4533 230.981 19.768C230.619 19.9195 230.294 20.1462 230.027 20.433C229.754 20.7289 229.545 21.0768 229.41 21.456C229.262 21.8757 229.189 22.318 229.193 22.763H229.189ZM242.659 35.563H230.527V29.755H232.334V34.026H242.663L242.659 35.563ZM242.227 30.737H240.482V17.189H242.227V30.737Z" fill="white"/>
</svg>
