<svg width="337" height="54" viewBox="0 0 337 54" fill="none" xmlns="http://www.w3.org/2000/svg">
<rect width="337" height="54" rx="4" fill="#FEE500"/>
<path d="M101.219 32.3L96.7325 36L97.5125 31.237C96.2141 30.7312 95.1071 29.8309 94.3472 28.6629C93.5873 27.4949 93.2128 26.118 93.2765 24.726C93.2765 19.588 99.6305 18 103.337 18C107.044 18 112.337 20.322 112.337 25.25C112.337 30.178 107.573 32.3 101.219 32.3Z" fill="#191919"/>
<path d="M134.7 30.6941C135.8 30.0841 136.723 29.5394 137.469 29.0601C138.106 28.6591 138.72 28.2214 139.306 27.7491C139.715 27.4271 140.081 27.0544 140.395 26.6401C140.624 26.3304 140.801 25.986 140.921 25.6201L134.721 25.7941L134.664 24.1811L141.064 24.0641V21.2851H135.029V19.6521H142.961V23.4421C142.961 24.0001 142.947 24.5111 142.921 24.9781C142.881 25.9163 142.563 26.8214 142.007 27.5781C141.643 28.07 141.219 28.5141 140.744 28.9001C140.087 29.4404 139.399 29.9412 138.683 30.4001C137.854 30.9441 136.836 31.5531 135.631 32.2271L134.7 30.6941ZM150.99 26.2611H148.228V35.9611H146.3V18.0391H148.224V24.5891H150.985L150.99 26.2611Z" fill="#191919"/>
<path d="M152.388 30.6941C153.489 30.0841 154.412 29.5394 155.158 29.0601C155.797 28.659 156.412 28.2213 156.999 27.7491C157.408 27.4265 157.773 27.0539 158.088 26.6401C158.317 26.3304 158.494 25.986 158.613 25.6201L152.413 25.7941L152.355 24.1811L158.755 24.0641V21.2851H152.718V19.6521H160.65V23.4421C160.65 24.0001 160.636 24.5111 160.611 24.9781C160.571 25.916 160.253 26.8209 159.697 27.5781C159.333 28.0694 158.908 28.5132 158.433 28.8991C157.777 29.4418 157.089 29.945 156.373 30.4061C155.545 30.9501 154.527 31.5591 153.321 32.2331L152.388 30.6941ZM168.678 26.2611H165.918V35.9611H163.999V18.0391H165.923V24.5891H168.683L168.678 26.2611Z" fill="#191919"/>
<path d="M186.019 31.9379V33.5709H169.573V31.9379H176.824V28.6709C176.144 28.6016 175.475 28.4481 174.832 28.2139C174.253 28.0071 173.712 27.7053 173.232 27.3209C172.788 26.9628 172.424 26.5155 172.164 26.0079C171.901 25.4901 171.767 24.9165 171.774 24.3359V23.3999C171.766 22.7587 171.93 22.1271 172.251 21.5719C172.576 21.0202 173.02 20.5485 173.551 20.1919C174.142 19.7983 174.792 19.5028 175.476 19.3169C176.997 18.9022 178.601 18.9022 180.122 19.3169C180.807 19.5028 181.457 19.7983 182.047 20.1919C182.578 20.5488 183.023 21.0204 183.347 21.5719C183.668 22.1272 183.832 22.7588 183.823 23.3999V24.3319C183.83 24.9136 183.692 25.488 183.423 26.0039C183.157 26.5109 182.79 26.9578 182.344 27.3169C181.864 27.7013 181.323 28.003 180.744 28.2099C180.102 28.4439 179.433 28.5975 178.752 28.6669V31.9339L186.019 31.9379ZM177.8 20.6819C177.266 20.6792 176.734 20.7444 176.216 20.8759C175.748 20.9926 175.302 21.183 174.893 21.4399C174.531 21.668 174.224 21.9733 173.993 22.3339C173.773 22.6825 173.658 23.0874 173.662 23.4999V24.2399C173.658 24.6523 173.773 25.0572 173.993 25.4059C174.224 25.7664 174.531 26.0717 174.893 26.2999C175.302 26.5568 175.748 26.7471 176.216 26.8639C177.256 27.1225 178.344 27.1225 179.384 26.8639C179.85 26.7467 180.294 26.5564 180.7 26.2999C181.062 26.0716 181.37 25.7664 181.6 25.4059C181.82 25.057 181.934 24.6522 181.93 24.2399V23.4999C181.934 23.0876 181.82 22.6828 181.6 22.3339C181.37 21.9734 181.062 21.6681 180.7 21.4399C180.292 21.1828 179.846 20.9924 179.378 20.8759C178.863 20.7449 178.332 20.6797 177.8 20.6819Z" fill="#191919"/>
<path d="M194.436 29.022V23.4H204.272V21.09H194.358V19.458H206.177V25.037H196.341V27.388H206.6V29.022H201.3V31.938H208.571V33.571H192.123V31.938H199.393V29.022H194.436Z" fill="#191919"/>
<path d="M226.258 31.938V33.571H209.812V31.938H226.258ZM223.731 19.729V22.374C223.731 23.2407 223.715 24.034 223.682 24.754C223.65 25.474 223.604 26.1543 223.546 26.795C223.488 27.437 223.417 28.056 223.333 28.652C223.249 29.248 223.149 29.8507 223.033 30.46L221.109 30.227C221.355 28.9603 221.533 27.7517 221.643 26.601C221.754 25.4503 221.809 24.2677 221.809 23.053V21.4H211.837V19.729H223.731Z" fill="#191919"/>
<path d="M228.26 22.8591C228.28 21.8459 228.675 20.8762 229.369 20.1371C229.768 19.7202 230.243 19.3838 230.769 19.1461C232.036 18.6274 233.457 18.6274 234.725 19.1461C235.254 19.3818 235.733 19.7184 236.134 20.1371C236.827 20.8762 237.222 21.8459 237.243 22.8591V23.8701C237.222 24.8829 236.827 25.8522 236.134 26.5911C235.734 27.011 235.255 27.3481 234.725 27.5831C233.457 28.1018 232.036 28.1018 230.769 27.5831C230.242 27.3461 229.767 27.0092 229.369 26.5911C228.676 25.8522 228.281 24.8829 228.26 23.8701V22.8591ZM235.395 22.9371C235.393 22.6322 235.341 22.3297 235.24 22.0421C235.133 21.7333 234.962 21.4503 234.74 21.2111C234.517 20.9719 234.247 20.7819 233.947 20.6531C233.569 20.4948 233.161 20.4185 232.752 20.4291C232.339 20.4188 231.928 20.4951 231.546 20.6531C231.232 20.7861 230.95 20.9849 230.719 21.2361C230.509 21.4693 230.351 21.7439 230.254 22.0421C230.157 22.3307 230.108 22.6328 230.107 22.9371V23.7921C230.108 24.0967 230.161 24.399 230.263 24.6861C230.366 24.9843 230.528 25.2589 230.739 25.4941C230.967 25.7432 231.245 25.9418 231.555 26.0771C232.324 26.3744 233.177 26.3744 233.947 26.0771C234.247 25.9482 234.518 25.7579 234.74 25.5184C234.963 25.2788 235.133 24.9953 235.24 24.6861C235.341 24.3988 235.393 24.0966 235.395 23.7921V22.9371ZM233.082 34.1001H242.724V35.7721H231.157V29.8191H233.082V34.1001ZM240.45 30.8351V18.0391H242.35V30.8301L240.45 30.8351Z" fill="#191919"/>
</svg>
